<?xml version="1.0" encoding="UTF-8"?>
<!DOCTYPE svg PUBLIC "-//W3C//DTD SVG 1.1//EN"
    "http://www.w3.org/Graphics/SVG/1.1/DTD/svg11.dtd">
<svg xmlns="http://www.w3.org/2000/svg" height="600.0" stroke-opacity="1" viewBox="0 0 150 600" font-size="1" width="150.00000000000003" xmlns:xlink="http://www.w3.org/1999/xlink" stroke="rgb(0,0,0)" version="1.1">
  <defs>
  </defs>
  <defs>
  </defs>
  <g stroke-linejoin="miter" stroke-opacity="1.0" fill-opacity="0.0" stroke="rgb(0,0,0)" stroke-width="1.2" fill="rgb(0,0,0)" stroke-linecap="butt" stroke-miterlimit="10.0">
    <path d="M 125.00000000000003,525.0 c 0.0,-27.614237491539676 -22.385762508460324,-50.00000000000001 -49.99999999999999 -50.00000000000001c -27.614237491539676,-1.6908285344049795e-15 -50.00000000000001,22.38576250846032 -50.00000000000001 49.99999999999999c -3.381657068809959e-15,27.614237491539676 22.38576250846032,50.00000000000001 49.999999999999986 50.00000000000001c 27.614237491539676,5.072485603214939e-15 50.00000000000001,-22.385762508460317 50.000000000000014 -49.99999999999999Z"/>
  </g>
  <defs>
  </defs>
  <g stroke-linejoin="miter" stroke-opacity="1.0" fill-opacity="1.0" font-size="30.000000000000004px" stroke="rgb(0,0,0)" stroke-width="1.2" fill="rgb(0,0,255)" stroke-linecap="butt" stroke-miterlimit="10.0">
    <text dominant-baseline="middle" transform="matrix(1.0,0.0,0.0,1.0,75.00000000000001,525.0)" stroke="none" text-anchor="middle">4
    </text>
  </g>
  <defs>
  </defs>
  <g stroke-linejoin="miter" stroke-opacity="1.0" fill-opacity="0.0" stroke="rgb(0,0,0)" stroke-width="1.2" fill="rgb(0,0,0)" stroke-linecap="butt" stroke-miterlimit="10.0">
    <path d="M 125.00000000000003,375.0 c 0.0,-27.614237491539676 -22.385762508460324,-50.00000000000001 -49.99999999999999 -50.00000000000001c -27.614237491539676,-1.6908285344049795e-15 -50.00000000000001,22.38576250846032 -50.00000000000001 49.99999999999999c -3.381657068809959e-15,27.614237491539676 22.38576250846032,50.00000000000001 49.999999999999986 50.00000000000001c 27.614237491539676,5.072485603214939e-15 50.00000000000001,-22.385762508460317 50.000000000000014 -49.99999999999999Z"/>
  </g>
  <defs>
  </defs>
  <g stroke-linejoin="miter" stroke-opacity="1.0" fill-opacity="1.0" font-size="30.000000000000004px" stroke="rgb(0,0,0)" stroke-width="1.2" fill="rgb(0,0,255)" stroke-linecap="butt" stroke-miterlimit="10.0">
    <text dominant-baseline="middle" transform="matrix(1.0,0.0,0.0,1.0,75.00000000000001,375.0)" stroke="none" text-anchor="middle">3
    </text>
  </g>
  <defs>
  </defs>
  <g stroke-linejoin="miter" stroke-opacity="1.0" fill-opacity="0.0" stroke="rgb(0,0,0)" stroke-width="1.2" fill="rgb(0,0,0)" stroke-linecap="butt" stroke-miterlimit="10.0">
    <path d="M 125.00000000000003,225.0 c 0.0,-27.614237491539676 -22.385762508460324,-50.00000000000001 -49.99999999999999 -50.00000000000001c -27.614237491539676,-1.6908285344049795e-15 -50.00000000000001,22.38576250846032 -50.00000000000001 49.99999999999999c -3.381657068809959e-15,27.614237491539676 22.38576250846032,50.00000000000001 49.999999999999986 50.00000000000001c 27.614237491539676,5.072485603214939e-15 50.00000000000001,-22.385762508460317 50.000000000000014 -49.99999999999999Z"/>
  </g>
  <defs>
  </defs>
  <g stroke-linejoin="miter" stroke-opacity="1.0" fill-opacity="1.0" font-size="30.000000000000004px" stroke="rgb(0,0,0)" stroke-width="1.2" fill="rgb(0,0,255)" stroke-linecap="butt" stroke-miterlimit="10.0">
    <text dominant-baseline="middle" transform="matrix(1.0,0.0,0.0,1.0,75.00000000000001,225.0)" stroke="none" text-anchor="middle">2
    </text>
  </g>
  <defs>
  </defs>
  <g stroke-linejoin="miter" stroke-opacity="1.0" fill-opacity="0.0" stroke="rgb(0,0,0)" stroke-width="1.2" fill="rgb(0,0,0)" stroke-linecap="butt" stroke-miterlimit="10.0">
    <path d="M 125.00000000000003,75.0 c 0.0,-27.614237491539676 -22.385762508460324,-50.00000000000001 -49.99999999999999 -50.00000000000001c -27.614237491539676,-1.6908285344049795e-15 -50.00000000000001,22.38576250846032 -50.00000000000001 49.99999999999999c -3.381657068809959e-15,27.614237491539676 22.38576250846032,50.00000000000001 49.999999999999986 50.00000000000001c 27.614237491539676,5.072485603214939e-15 50.00000000000001,-22.385762508460317 50.000000000000014 -49.99999999999999Z"/>
  </g>
  <defs>
  </defs>
  <g stroke-linejoin="miter" stroke-opacity="1.0" fill-opacity="1.0" font-size="30.000000000000004px" stroke="rgb(0,0,0)" stroke-width="1.2" fill="rgb(0,0,255)" stroke-linecap="butt" stroke-miterlimit="10.0">
    <text dominant-baseline="middle" transform="matrix(1.0,0.0,0.0,1.0,75.00000000000001,75.0)" stroke="none" text-anchor="middle">1
    </text>
  </g>
</svg>